<svg xmlns="http://www.w3.org/2000/svg" width="164" height="164" viewBox="0 0 1024 1024" version="1.1">
<path fill="#fff
" d="M 385 127 L 385 152 397.500 152 L 410 152 410 177.500 L 410 203 435.500 203 L 461 203 461 177.500 L 461 152 448.500 152 L 436 152 436 127 L 436 102 410.500 102 L 385 102 385 127 M 588 127 L 588 152 575.500 152 L 563 152 563 177.500 L 563 203 588.500 203 L 614 203 614 177.500 L 614 152 626.500 152 L 639 152 639 127 L 639 102 613.500 102 L 588 102 588 127 M 410 254 L 410 271 393.500 271 L 377 271 377 288 L 377 305 360 305 L 343 305 343 322 L 343 339 326 339 L 309 339 309 474 L 309 609 326 609 L 343 609 343 626 L 343 643 360 643 L 377 643 377 660 L 377 677 393.500 677 L 410 677 410 694 L 410 711 512 711 L 614 711 614 694 L 614 677 630.500 677 L 647 677 647 660 L 647 643 664 643 L 681 643 681 626 L 681 609 698 609 L 715 609 715 575.500 L 715 542 681 542 L 647 542 647 558.500 L 647 575 630.500 575 L 614 575 614 592 L 614 609 597 609 L 580 609 580 626 L 580 643 512 643 L 444 643 444 626 L 444 609 427 609 L 410 609 410 592 L 410 575 393.500 575 L 377 575 377 473.500 L 377 372 393.500 372 L 410 372 410 355.500 L 410 339 427 339 L 444 339 444 322 L 444 305 512 305 L 580 305 580 322 L 580 339 597 339 L 614 339 614 355.500 L 614 372 630.500 372 L 647 372 647 389 L 647 406 681 406 L 715 406 715 372.500 L 715 339 698 339 L 681 339 681 322 L 681 305 664 305 L 647 305 647 288 L 647 271 630.500 271 L 614 271 614 254 L 614 237 512 237 L 410 237 410 254 M 410 757.500 L 410 770 448 770 L 486 770 486 795.500 L 486 821 448 821 L 410 821 410 833.500 L 410 846 447.988 846 L 485.976 846 486.238 884.250 L 486.500 922.500 512 922.500 L 537.500 922.500 537.762 884.250 L 538.024 846 576.012 846 L 614 846 614 833.500 L 614 821 576 821 L 538 821 538 795.500 L 538 770 576 770 L 614 770 614 757.500 L 614 745 512 745 L 410 745 410 757.500" stroke="none" fill-rule="evenodd"/></svg>